<svg xmlns="http://www.w3.org/2000/svg" id="Layer_1" data-name="Layer 1" viewBox="0 0 408.74 408.74"><defs><style>      .cls-1 {        fill: #dca9f4;      }      .cls-2 {        fill: #6d9ff7;      }    </style></defs><path class="cls-1" d="M408.74,204.37c0,35.84-9.21,69.49-25.44,98.76-7.08,12.88-15.57,24.92-25.2,35.88-37.45,42.75-92.45,69.73-153.73,69.73C91.51,408.74,0,317.23,0,204.37S91.51,0,204.37,0s204.37,91.51,204.37,204.37Z"></path><g><path class="cls-2" d="M204.34,57.3c-81.53,0-147.62,66.03-147.62,147.63s66.1,147.52,147.62,147.52c43.1,0,81.87-18.46,108.85-47.95,9.88-10.78,18.15-23.03,24.5-36.4,9.07-19.16,14.17-40.55,14.17-63.17,0-81.59-66.03-147.63-147.52-147.63ZM204.34,308.65c-57.41,0-103.83-46.42-103.83-103.72s46.42-103.83,103.83-103.83,103.72,46.42,103.72,103.83-46.42,103.72-103.72,103.72Z"></path><path class="cls-2" d="M383.3,303.14c-7.08,12.88-15.57,24.92-25.2,35.88l-44.92-34.52-15.36-11.8,26.7-34.73,13.16,10.12,45.61,35.04Z"></path></g></svg>