<svg xmlns="http://www.w3.org/2000/svg" id="Layer_1" data-name="Layer 1" viewBox="0 0 408.74 408.74"><defs><style>      .cls-1 {        fill: #f3d1de;      }      .cls-2 {        fill: #77a0f2;      }    </style></defs><circle class="cls-1" cx="204.37" cy="204.37" r="204.37"></circle><g><path class="cls-2" d="M249.06,204.37c0,24.71-20,44.71-44.71,44.71s-44.66-20-44.66-44.71,20-44.71,44.66-44.71,44.71,20.05,44.71,44.71Z"></path><path class="cls-2" d="M204.41,65.78c-76.54,0-138.63,62.01-138.63,138.63s62.09,138.55,138.63,138.55,138.55-62.01,138.55-138.55-62.01-138.63-138.55-138.63ZM204.41,301.83c-53.91,0-97.5-43.59-97.5-97.42s43.59-97.5,97.5-97.5,97.42,43.59,97.42,97.5-43.59,97.42-97.42,97.42Z"></path></g></svg>