<svg xmlns="http://www.w3.org/2000/svg" id="Layer_1" data-name="Layer 1" viewBox="0 0 408.74 408.74"><defs><style>      .cls-1 {        fill: #ffe0cb;      }      .cls-2 {        fill: #f4b83f;      }    </style></defs><circle class="cls-2" cx="204.37" cy="204.37" r="204.37"></circle><g><path class="cls-1" d="M296.14,204.39c14.65-17.57,23.95-34.47,28.63-49.91,16.11-51.86-18.67-86.63-70.52-70.52-15.44,4.74-32.34,14.04-49.91,28.7-17.57-14.65-34.47-23.95-49.91-28.7-51.86-16.11-86.57,18.66-70.46,70.52,4.68,15.44,13.98,32.34,28.63,49.91-14.65,17.57-23.95,34.47-28.63,49.91-16.11,51.86,18.6,86.63,70.46,70.52,15.44-4.74,32.34-14.04,49.91-28.7,17.57,14.65,34.47,23.95,49.91,28.7,51.86,16.11,86.63-18.66,70.52-70.52-4.68-15.44-13.98-32.34-28.63-49.91ZM204.34,269.87c-36.17,0-65.48-29.3-65.48-65.48s29.31-65.54,65.48-65.54,65.54,29.36,65.54,65.54-29.36,65.48-65.54,65.48Z"></path><path class="cls-1" d="M324.78,154.48c-14.29-7.54-32.77-12.95-55.51-14.96-2.07-22.74-7.42-41.28-15.02-55.57-25.23-48.09-74.53-48.09-99.83,0-7.54,14.29-12.89,32.83-14.96,55.57-22.74,2.01-41.22,7.42-55.51,14.96-48.15,25.23-48.15,74.54,0,99.83,14.29,7.54,32.77,12.95,55.51,14.96,2.07,22.74,7.42,41.28,14.96,55.57,25.29,48.03,74.6,48.03,99.83,0,7.6-14.29,12.95-32.83,15.02-55.57,22.74-2.07,41.22-7.42,55.51-14.96,48.15-25.29,48.15-74.6,0-99.83ZM204.34,269.87c-36.17,0-65.48-29.3-65.48-65.48s29.31-65.54,65.48-65.54,65.54,29.36,65.54,65.54-29.36,65.48-65.54,65.48Z"></path></g></svg>